<mxfile host="app.diagrams.net" modified="2021-03-30T03:04:18.784Z" agent="5.0 (Windows NT 10.0; Win64; x64) AppleWebKit/537.36 (KHTML, like Gecko) Chrome/89.0.4389.90 Safari/537.36 Edg/89.0.774.63" etag="SjCr686_HPurcQAfGSbJ" version="14.4.9" type="github">
  <diagram id="0kAya-y3L0eqNiJAjyWb" name="第 1 页">
    <mxGraphModel dx="1422" dy="772" grid="1" gridSize="10" guides="1" tooltips="1" connect="1" arrows="1" fold="1" page="1" pageScale="1" pageWidth="827" pageHeight="1169" math="0" shadow="0">
      <root>
        <mxCell id="0" />
        <mxCell id="1" parent="0" />
        <mxCell id="eN4npGuOjzb6daEbdw4c-3" value="初始化" style="edgeStyle=orthogonalEdgeStyle;rounded=0;orthogonalLoop=1;jettySize=auto;html=1;" edge="1" parent="1" source="eN4npGuOjzb6daEbdw4c-1" target="eN4npGuOjzb6daEbdw4c-2">
          <mxGeometry relative="1" as="geometry" />
        </mxCell>
        <mxCell id="eN4npGuOjzb6daEbdw4c-1" value="启动类加载&lt;br&gt;EurekaBootStrap" style="rounded=0;whiteSpace=wrap;html=1;" vertex="1" parent="1">
          <mxGeometry x="310" y="50" width="120" height="60" as="geometry" />
        </mxCell>
        <mxCell id="eN4npGuOjzb6daEbdw4c-5" style="edgeStyle=orthogonalEdgeStyle;rounded=0;orthogonalLoop=1;jettySize=auto;html=1;entryX=0.5;entryY=0;entryDx=0;entryDy=0;" edge="1" parent="1" source="eN4npGuOjzb6daEbdw4c-2" target="eN4npGuOjzb6daEbdw4c-4">
          <mxGeometry relative="1" as="geometry" />
        </mxCell>
        <mxCell id="eN4npGuOjzb6daEbdw4c-7" style="edgeStyle=orthogonalEdgeStyle;rounded=0;orthogonalLoop=1;jettySize=auto;html=1;entryX=0.547;entryY=-0.083;entryDx=0;entryDy=0;entryPerimeter=0;" edge="1" parent="1" source="eN4npGuOjzb6daEbdw4c-2" target="eN4npGuOjzb6daEbdw4c-6">
          <mxGeometry relative="1" as="geometry" />
        </mxCell>
        <mxCell id="eN4npGuOjzb6daEbdw4c-2" value="contextInitialized()" style="rounded=0;whiteSpace=wrap;html=1;" vertex="1" parent="1">
          <mxGeometry x="310" y="200" width="120" height="60" as="geometry" />
        </mxCell>
        <mxCell id="eN4npGuOjzb6daEbdw4c-4" value="initEurekaEnviroment()" style="rounded=0;whiteSpace=wrap;html=1;" vertex="1" parent="1">
          <mxGeometry x="120" y="310" width="130" height="60" as="geometry" />
        </mxCell>
        <mxCell id="eN4npGuOjzb6daEbdw4c-6" value="initEurekaServerContext()" style="rounded=0;whiteSpace=wrap;html=1;" vertex="1" parent="1">
          <mxGeometry x="490" y="310" width="150" height="60" as="geometry" />
        </mxCell>
      </root>
    </mxGraphModel>
  </diagram>
</mxfile>
